# Blender v2.79 (sub 0) OBJ File: 'briefcase.blend'
# www.blender.org
o Cube
v 0.750000 -1.351710 -0.209936
v -0.750000 -1.351710 -0.209936
v -0.750000 1.330746 -0.209936
v 0.750000 1.330745 -0.209936
v 0.750000 -1.351711 0.205583
v -0.750000 -1.351710 0.205583
v -0.750000 1.330746 0.205583
v 0.750000 1.330746 0.205583
v -0.750000 0.228993 0.037936
v -0.750000 0.174195 0.037143
v -0.750000 0.175156 -0.022494
v -0.750000 0.231908 -0.021668
v -0.867019 0.228993 0.037936
v -0.867019 0.174195 0.037143
v -0.867019 0.175156 -0.022494
v -0.867019 0.231908 -0.021668
v -0.750000 0.174676 0.007324
v -0.867019 0.174676 0.007324
v -0.808510 0.175156 -0.022494
v -0.808510 0.174195 0.037143
v -0.808510 0.174676 0.007324
v -0.867019 -0.196131 0.031175
v -0.867019 -0.195650 0.001356
v -0.867019 -0.195170 -0.028462
v -0.808510 -0.195170 -0.028462
v -0.808510 -0.196131 0.031175
v -0.808510 -0.195650 0.001356
v -0.867019 -0.255880 0.030212
v -0.867019 -0.255399 0.000393
v -0.867019 -0.254919 -0.029425
v -0.808510 -0.254919 -0.029425
v -0.808510 -0.255880 0.030212
v -0.808510 -0.255399 0.000393
v -0.749573 -0.195650 0.001356
v -0.749573 -0.195170 -0.028462
v -0.749573 -0.196131 0.031175
v -0.749573 -0.255399 0.000394
v -0.749573 -0.254919 -0.029425
v -0.749573 -0.255880 0.030212
v 0.750000 -0.752891 -0.209936
v 0.750000 0.697956 -0.209936
v -0.750000 -0.752891 -0.209936
v -0.750000 0.697957 -0.209936
v 0.750000 -0.752891 0.205583
v 0.750000 0.697956 0.205583
v -0.750000 -0.752890 0.205583
v -0.750000 0.697957 0.205583
v 0.750000 -0.485886 -0.209936
v 0.750000 0.427983 -0.209936
v -0.750000 -0.485886 -0.209936
v -0.750000 0.427984 -0.209936
v 0.750000 -0.485886 0.205583
v 0.750000 0.427983 0.205583
v -0.750000 -0.485885 0.205583
v -0.750000 0.427984 0.205583
v -0.787500 -0.752891 -0.209936
v -0.787500 -0.752890 0.205582
v -0.787500 -0.485886 -0.209936
v -0.787500 -0.485885 0.205582
v -0.787500 0.427984 -0.209936
v -0.787500 0.697957 -0.209936
v -0.787500 0.427984 0.205583
v -0.787500 0.697957 0.205583
v 0.750000 -0.752891 0.213083
v -0.750000 -0.752890 0.213083
v 0.750000 -0.485886 0.213083
v -0.750000 -0.485885 0.213083
v 0.750000 0.427983 0.213083
v 0.750000 0.697956 0.213083
v -0.750000 0.427984 0.213083
v -0.750000 0.697957 0.213083
v 0.757500 0.427983 -0.209936
v 0.757500 0.697956 -0.209936
v 0.757500 0.427983 0.205583
v 0.757500 0.697956 0.205583
v 0.757500 -0.752891 -0.209936
v 0.757500 -0.752891 0.205583
v 0.757500 -0.485886 -0.209936
v 0.757500 -0.485886 0.205583
v -0.750000 -0.752891 -0.217436
v 0.750000 -0.752891 -0.217436
v 0.750000 -0.485886 -0.217436
v -0.750000 -0.485886 -0.217436
v 0.750000 0.427983 -0.217436
v 0.750000 0.697956 -0.217436
v -0.750000 0.427984 -0.217436
v -0.750000 0.697957 -0.217436
vt 0.593575 0.332036
vt 0.459335 0.014298
vt 0.593575 0.014298
vt 0.148560 0.360632
vt 0.014320 0.678370
vt 0.014320 0.360632
vt 0.186874 0.678370
vt 0.275023 0.360633
vt 0.275023 0.678370
vt 0.622214 0.678370
vt 0.710361 0.360633
vt 0.710361 0.678370
vt 0.342547 0.706967
vt 0.430696 0.841008
vt 0.342547 0.841008
vt 0.664272 0.706967
vt 0.576123 0.833812
vt 0.576123 0.706967
vt 0.143611 0.798073
vt 0.156023 0.798073
vt 0.156023 0.810095
vt 0.908280 0.838277
vt 0.901937 0.850301
vt 0.895627 0.838693
vt 0.920526 0.706967
vt 0.920526 0.718575
vt 0.908113 0.718575
vt 0.199523 0.929144
vt 0.186874 0.953932
vt 0.186874 0.929144
vt 0.087432 0.941628
vt 0.087432 0.954022
vt 0.081106 0.954022
vt 0.305952 0.940193
vt 0.318455 0.946510
vt 0.305952 0.946510
vt 0.156023 0.719624
vt 0.908114 0.797024
vt 0.908114 0.809681
vt 0.895611 0.809681
vt 0.809699 0.940194
vt 0.822111 0.940194
vt 0.822111 0.946511
vt 0.137434 0.917146
vt 0.131108 0.838691
vt 0.137434 0.838691
vt 0.920526 0.797024
vt 0.240815 0.929144
vt 0.234488 0.941802
vt 0.234488 0.929144
vt 0.908278 0.928755
vt 0.901951 0.928756
vt 0.143611 0.719624
vt 0.143611 0.706967
vt 0.156023 0.706967
vt 0.908280 0.941413
vt 0.901954 0.941414
vt 0.074780 0.941628
vt 0.081106 0.929144
vt 0.081106 0.941628
vt 0.547484 0.706967
vt 0.459335 0.841008
vt 0.459335 0.706967
vt 0.526159 0.869604
vt 0.534115 0.926162
vt 0.526159 0.926162
vt 0.781060 0.706967
vt 0.692911 0.833812
vt 0.692911 0.706967
vt 0.398874 0.869604
vt 0.400465 0.957620
vt 0.398874 0.957620
vt 0.749248 0.014298
vt 0.622214 0.332036
vt 0.622214 0.014298
vt 0.955450 0.332036
vt 0.953859 0.014298
vt 0.955450 0.014298
vt 0.430696 0.360633
vt 0.303662 0.678370
vt 0.303662 0.360633
vt 0.940424 0.360633
vt 0.942015 0.678370
vt 0.940424 0.678370
vt 0.923629 0.014298
vt 0.925220 0.332036
vt 0.923629 0.332036
vt 0.236827 0.014298
vt 0.430696 0.332036
vt 0.236827 0.332036
vt 0.911785 0.678370
vt 0.910194 0.360633
vt 0.911785 0.360633
vt 0.208188 0.014298
vt 0.014320 0.332036
vt 0.014320 0.014298
vt 0.430696 0.957620
vt 0.429105 0.869604
vt 0.430696 0.869604
vt 0.186874 0.900547
vt 0.275023 0.706967
vt 0.275023 0.900547
vt 0.746687 0.862408
vt 0.754642 0.950424
vt 0.746687 0.950424
vt 0.014320 0.900547
vt 0.102469 0.706967
vt 0.102469 0.900547
vt 0.632766 0.950426
vt 0.576123 0.862409
vt 0.632766 0.862408
vt 0.305952 0.706967
vt 0.313908 0.794984
vt 0.305952 0.794984
vt 0.936920 0.838277
vt 0.944875 0.926293
vt 0.936920 0.926293
vt 0.970654 0.360633
vt 0.978609 0.417191
vt 0.970654 0.417191
vt 0.866971 0.794984
vt 0.809699 0.706967
vt 0.866972 0.706967
vt 0.305952 0.823580
vt 0.313907 0.911597
vt 0.305952 0.911597
vt 0.362280 0.926791
vt 0.370235 0.869604
vt 0.370235 0.926791
vt 0.489565 0.869604
vt 0.497520 0.926791
vt 0.489565 0.926791
vt 0.834529 0.014298
vt 0.777887 0.332036
vt 0.777887 0.014298
vt 0.985680 0.156011
vt 0.984089 0.099453
vt 0.985680 0.099453
vt 0.985680 0.241166
vt 0.984089 0.184608
vt 0.985680 0.184608
vt 0.477433 0.678370
vt 0.475842 0.360633
vt 0.477433 0.360633
vt 0.796273 0.678370
vt 0.739001 0.360633
vt 0.796273 0.360633
vt 0.970654 0.445787
vt 0.972245 0.502974
vt 0.970654 0.502974
vt 0.970654 0.531570
vt 0.972245 0.588757
vt 0.970654 0.588757
vt 0.507664 0.678370
vt 0.506072 0.360633
vt 0.507663 0.360633
vt 0.809699 0.911598
vt 0.866971 0.823581
vt 0.866971 0.911598
vt 0.459335 0.869604
vt 0.460926 0.957621
vt 0.459335 0.957621
vt 0.979395 0.706967
vt 0.980986 0.764153
vt 0.979395 0.764153
vt 0.973514 0.924061
vt 0.975105 0.981247
vt 0.973514 0.981247
vt 0.718048 0.950426
vt 0.661405 0.862408
vt 0.718048 0.862408
vt 0.014320 0.929144
vt 0.015911 0.985702
vt 0.014320 0.985702
vt 0.046141 0.985702
vt 0.044550 0.929144
vt 0.046141 0.929144
vt 0.949165 0.706967
vt 0.950756 0.794984
vt 0.949165 0.794984
vt 0.824912 0.360633
vt 0.881554 0.678370
vt 0.824912 0.678370
vt 0.984089 0.014298
vt 0.985680 0.070857
vt 0.984089 0.070857
vt 0.985680 0.326321
vt 0.984089 0.269763
vt 0.985680 0.269763
vt 0.863168 0.014298
vt 0.864760 0.332036
vt 0.863169 0.332036
vt 0.593575 0.678370
vt 0.536303 0.360633
vt 0.593575 0.360633
vt 0.975105 0.895464
vt 0.973514 0.838277
vt 0.975105 0.838277
vt 0.893399 0.014298
vt 0.894990 0.332036
vt 0.893399 0.332036
vt 0.970654 0.617354
vt 0.972245 0.674541
vt 0.970654 0.674541
vt 0.459335 0.332036
vt 0.148560 0.678370
vt 0.186874 0.360633
vt 0.622214 0.360633
vt 0.430696 0.706967
vt 0.664272 0.833812
vt 0.131198 0.810095
vt 0.131198 0.798073
vt 0.895611 0.850302
vt 0.908264 0.850300
vt 0.895701 0.718575
vt 0.895701 0.706967
vt 0.199523 0.953932
vt 0.074780 0.954022
vt 0.305952 0.952826
vt 0.318455 0.940193
vt 0.318455 0.952826
vt 0.920526 0.809681
vt 0.895611 0.797024
vt 0.822111 0.952828
vt 0.809699 0.952828
vt 0.809699 0.946511
vt 0.143761 0.838691
vt 0.143761 0.917146
vt 0.131108 0.917146
vt 0.228162 0.929144
vt 0.240815 0.941802
vt 0.228162 0.941802
vt 0.895625 0.928757
vt 0.131108 0.719624
vt 0.131108 0.706967
vt 0.895627 0.941415
vt 0.074780 0.929144
vt 0.087432 0.929144
vt 0.547484 0.841008
vt 0.534115 0.869604
vt 0.781060 0.833812
vt 0.400465 0.869604
vt 0.749248 0.332036
vt 0.953859 0.332036
vt 0.430696 0.678370
vt 0.942015 0.360633
vt 0.925220 0.014298
vt 0.430696 0.014298
vt 0.910194 0.678370
vt 0.208188 0.332036
vt 0.429105 0.957620
vt 0.186874 0.706967
vt 0.754642 0.862408
vt 0.014320 0.706967
vt 0.576123 0.950426
vt 0.313908 0.706967
vt 0.944875 0.838277
vt 0.978609 0.360633
vt 0.809699 0.794984
vt 0.313908 0.823580
vt 0.362280 0.869604
vt 0.497520 0.869604
vt 0.834529 0.332036
vt 0.984089 0.156011
vt 0.984089 0.241166
vt 0.475842 0.678370
vt 0.739001 0.678370
vt 0.972245 0.445787
vt 0.972245 0.531570
vt 0.506073 0.678370
vt 0.809699 0.823581
vt 0.460926 0.869604
vt 0.980986 0.706967
vt 0.975105 0.924061
vt 0.661405 0.950426
vt 0.015911 0.929144
vt 0.044550 0.985702
vt 0.950756 0.706967
vt 0.881554 0.360633
vt 0.985680 0.014298
vt 0.984089 0.326321
vt 0.864760 0.014298
vt 0.536303 0.678370
vt 0.973514 0.895464
vt 0.894990 0.014298
vt 0.972245 0.617354
vn 0.0000 0.0000 -1.0000
vn -0.0000 0.0000 1.0000
vn 0.0000 -1.0000 0.0000
vn 0.0000 1.0000 -0.0000
vn 1.0000 -0.0000 0.0000
vn -1.0000 0.0000 -0.0000
vn -0.0000 0.0145 -0.9999
vn 0.0000 -0.0145 0.9999
vn 0.0000 0.9988 0.0489
vn -0.0000 -0.9999 -0.0161
vn -0.0000 0.9999 0.0161
vn -0.0000 0.0161 -0.9999
vn -0.0000 -0.0161 0.9999
vn 0.0000 0.9988 0.0488
s off
f 43/1/1 4/2/1 41/3/1
f 8/4/2 47/5/2 45/6/2
f 5/7/3 2/8/3 1/9/3
f 7/10/4 4/11/4 3/12/4
f 45/13/5 4/14/5 8/15/5
f 42/16/6 6/17/6 46/18/6
f 19/19/7 15/20/7 16/21/7
f 16/22/6 18/23/6 13/24/6
f 13/25/8 14/26/8 20/27/8
f 12/28/9 13/29/9 9/30/9
f 32/31/10 28/32/10 29/33/10
f 26/34/11 34/35/11 27/36/11
f 19/19/12 24/37/12 15/20/12
f 26/38/13 32/39/13 39/40/13
f 10/41/10 20/42/10 21/43/10
f 21/44/5 26/45/5 27/46/5
f 20/27/13 22/47/13 26/38/13
f 36/48/5 37/49/5 34/50/5
f 18/23/6 24/51/6 23/52/6
f 25/53/12 31/54/12 30/55/12
f 24/51/6 30/56/6 29/57/6
f 31/58/10 37/59/10 33/60/10
f 3/61/6 47/62/6 7/63/6
f 54/64/2 57/65/2 46/66/2
f 1/67/5 44/68/5 5/69/5
f 45/70/4 73/71/4 41/72/4
f 44/73/2 6/74/2 5/75/2
f 47/76/4 69/77/4 45/78/4
f 1/79/1 42/80/1 40/81/1
f 41/82/4 87/83/4 43/84/4
f 48/85/4 83/86/4 50/87/4
f 50/88/1 49/89/1 48/90/1
f 54/91/4 66/92/4 52/93/4
f 53/94/2 54/95/2 52/96/2
f 52/97/4 78/98/4 48/99/4
f 48/100/5 53/101/5 52/102/5
f 43/103/4 63/104/4 47/105/4
f 51/106/6 54/107/6 55/108/6
f 58/109/6 57/110/6 59/111/6
f 46/112/3 56/113/3 42/114/3
f 50/115/4 59/116/4 54/117/4
f 42/118/1 58/119/1 50/120/1
f 61/121/6 62/122/6 63/123/6
f 55/124/3 60/125/3 51/126/3
f 55/127/2 63/128/2 62/129/2
f 51/130/1 61/131/1 43/132/1
f 66/133/2 65/134/2 64/135/2
f 46/136/6 67/137/6 54/138/6
f 52/139/5 64/140/5 44/141/5
f 44/142/3 65/143/3 46/144/3
f 68/145/2 71/146/2 70/147/2
f 55/148/6 71/149/6 47/150/6
f 45/151/5 68/152/5 53/153/5
f 53/154/3 70/155/3 55/156/3
f 74/157/5 73/158/5 75/159/5
f 49/160/3 74/161/3 53/162/3
f 53/163/2 75/164/2 45/165/2
f 41/166/1 72/167/1 49/168/1
f 76/169/5 79/170/5 77/171/5
f 44/172/2 79/173/2 52/174/2
f 48/175/1 76/176/1 40/177/1
f 40/178/3 77/179/3 44/180/3
f 80/181/1 82/182/1 81/183/1
f 50/184/6 80/185/6 42/186/6
f 40/187/5 82/188/5 48/189/5
f 42/190/3 81/191/3 40/192/3
f 86/193/1 85/194/1 84/195/1
f 43/196/6 86/197/6 51/198/6
f 51/199/3 84/200/3 49/201/3
f 49/202/5 85/203/5 41/204/5
f 43/1/1 3/205/1 4/2/1
f 8/4/2 7/206/2 47/5/2
f 5/7/3 6/207/3 2/8/3
f 7/10/4 8/208/4 4/11/4
f 45/13/5 41/209/5 4/14/5
f 42/16/6 2/210/6 6/17/6
f 16/21/7 12/211/7 19/19/7
f 11/212/7 19/19/7 12/211/7
f 14/213/6 13/24/6 18/23/6
f 16/22/6 15/214/6 18/23/6
f 20/27/8 10/215/8 9/216/8
f 9/216/8 13/25/8 20/27/8
f 12/28/14 16/217/14 13/29/14
f 30/218/10 31/58/10 33/60/10
f 33/60/10 32/31/10 29/33/10
f 29/33/10 30/218/10 33/60/10
f 25/219/11 27/36/11 34/35/11
f 26/34/11 36/220/11 34/35/11
f 34/35/11 35/221/11 25/219/11
f 19/19/12 25/53/12 24/37/12
f 26/38/13 22/47/13 28/222/13
f 28/222/13 32/39/13 26/38/13
f 39/40/13 36/223/13 26/38/13
f 19/224/10 11/225/10 17/226/10
f 17/226/10 10/41/10 21/43/10
f 21/43/10 19/224/10 17/226/10
f 25/227/5 19/228/5 27/46/5
f 21/44/5 20/229/5 26/45/5
f 27/46/5 19/228/5 21/44/5
f 20/27/13 14/26/13 22/47/13
f 35/230/5 34/50/5 37/49/5
f 36/48/5 39/231/5 37/49/5
f 37/49/5 38/232/5 35/230/5
f 22/233/6 14/213/6 18/23/6
f 18/23/6 15/214/6 24/51/6
f 23/52/6 22/233/6 18/23/6
f 30/55/12 24/37/12 25/53/12
f 25/53/12 35/234/12 38/235/12
f 38/235/12 31/54/12 25/53/12
f 28/236/6 22/233/6 23/52/6
f 23/52/6 24/51/6 29/57/6
f 29/57/6 28/236/6 23/52/6
f 32/31/10 33/60/10 37/59/10
f 31/58/10 38/237/10 37/59/10
f 37/59/10 39/238/10 32/31/10
f 3/61/6 43/239/6 47/62/6
f 54/64/2 59/240/2 57/65/2
f 1/67/5 40/241/5 44/68/5
f 45/70/4 75/242/4 73/71/4
f 44/73/2 46/243/2 6/74/2
f 47/76/4 71/244/4 69/77/4
f 1/79/1 2/245/1 42/80/1
f 41/82/4 85/246/4 87/83/4
f 48/85/4 82/247/4 83/86/4
f 50/88/1 51/248/1 49/89/1
f 54/91/4 67/249/4 66/92/4
f 53/94/2 55/250/2 54/95/2
f 52/97/4 79/251/4 78/98/4
f 48/100/5 49/252/5 53/101/5
f 43/103/4 61/253/4 63/104/4
f 51/106/6 50/254/6 54/107/6
f 58/109/6 56/255/6 57/110/6
f 46/112/3 57/256/3 56/113/3
f 50/115/4 58/257/4 59/116/4
f 42/118/1 56/258/1 58/119/1
f 61/121/6 60/259/6 62/122/6
f 55/124/3 62/260/3 60/125/3
f 55/127/2 47/261/2 63/128/2
f 51/130/1 60/262/1 61/131/1
f 66/133/2 67/263/2 65/134/2
f 46/136/6 65/264/6 67/137/6
f 52/139/5 66/265/5 64/140/5
f 44/142/3 64/266/3 65/143/3
f 68/145/2 69/267/2 71/146/2
f 55/148/6 70/268/6 71/149/6
f 45/151/5 69/269/5 68/152/5
f 53/154/3 68/270/3 70/155/3
f 74/157/5 72/271/5 73/158/5
f 49/160/3 72/272/3 74/161/3
f 53/163/2 74/273/2 75/164/2
f 41/166/1 73/274/1 72/167/1
f 76/169/5 78/275/5 79/170/5
f 44/172/2 77/276/2 79/173/2
f 48/175/1 78/277/1 76/176/1
f 40/178/3 76/278/3 77/179/3
f 80/181/1 83/279/1 82/182/1
f 50/184/6 83/280/6 80/185/6
f 40/187/5 81/281/5 82/188/5
f 42/190/3 80/282/3 81/191/3
f 86/193/1 87/283/1 85/194/1
f 43/196/6 87/284/6 86/197/6
f 51/199/3 86/285/3 84/200/3
f 49/202/5 84/286/5 85/203/5
