# Blender v2.79 (sub 0) OBJ File: 'TwoSidedULD.blend'
# www.blender.org
o Cube
v 3.750000 -3.750000 -3.750000
v -3.750000 -3.750000 -3.750000
v -3.749999 3.750000 -3.750000
v 3.750001 3.749999 -3.750000
v 6.809921 -3.750002 3.750000
v -6.545897 -3.749998 3.750000
v -6.545893 3.750001 3.750000
v 6.809923 3.750000 3.750000
v 6.712531 -3.742219 -0.885478
v -6.420666 -3.749999 -0.892325
v -6.420664 3.750001 -0.892325
v 6.712533 3.757781 -0.885478
v 6.712531 -3.742219 -0.885478
v 6.712531 -3.742219 -0.885478
v 6.712533 3.757781 -0.885478
v 6.712533 3.757781 -0.885478
v -6.420664 3.750001 -0.892325
v -6.420664 3.750001 -0.892325
v -6.420666 -3.749999 -0.892325
v -6.420666 -3.749999 -0.892325
vt 0.495931 0.815788
vt 0.263757 0.567200
vt 0.495931 0.567200
vt 0.010448 0.011186
vt 0.242621 0.453865
vt 0.010448 0.453866
vt 0.934289 0.011186
vt 0.934289 0.446487
vt 0.934289 0.446487
vt 0.955184 0.259774
vt 0.955184 0.011186
vt 0.955184 0.259774
vt 0.229494 0.476238
vt 0.229494 0.911539
vt 0.229494 0.911539
vt 0.956136 0.740226
vt 0.956136 0.988814
vt 0.956136 0.740226
vt 0.956136 0.988814
vt 0.956136 0.740226
vt 0.229494 0.476238
vt 0.229494 0.911539
vt 0.955184 0.011186
vt 0.955184 0.259774
vt 0.934289 0.011186
vt 0.934289 0.446487
vt 0.825141 0.469007
vt 0.681431 0.907535
vt 0.681643 0.472235
vt 0.495690 0.469007
vt 0.263517 0.469007
vt 0.846037 0.717595
vt 0.989552 0.469265
vt 0.989552 0.717853
vt 0.099075 0.476238
vt 0.010448 0.813296
vt 0.010569 0.564708
vt 0.516826 0.473158
vt 0.660536 0.911686
vt 0.517038 0.908458
vt 0.846037 0.988814
vt 0.935240 0.740226
vt 0.935240 0.988814
vt 0.913393 0.011186
vt 0.769654 0.259774
vt 0.769654 0.011186
vt 0.119971 0.574481
vt 0.208599 0.911539
vt 0.120092 0.823069
vt 0.263757 0.815788
vt 0.242621 0.011186
vt 0.934289 0.011186
vt 0.955184 0.011186
vt 0.229494 0.476238
vt 0.956136 0.988814
vt 0.825141 0.911686
vt 0.846037 0.469007
vt 0.099075 0.911539
vt 0.660536 0.469007
vt 0.846037 0.740226
vt 0.913393 0.259774
vt 0.208598 0.476238
vn 0.0000 0.0000 -1.0000
vn -0.0000 0.0000 1.0000
vn -0.0008 1.0000 0.0000
vn 1.0000 -0.0000 0.0000
vn 0.0008 -1.0000 0.0000
vn -1.0000 0.0000 0.0000
vn 0.0012 -1.0000 0.0000
vn 0.0000 -1.0000 0.0000
vn -0.0012 1.0000 0.0000
vn 0.0006 -1.0000 -0.0017
vn 0.6951 -0.0000 -0.7189
vn 0.9998 -0.0000 -0.0210
vn 0.0000 1.0000 0.0000
vn -0.0006 1.0000 0.0017
vn -0.7306 0.0000 -0.6828
vn -0.9996 0.0000 -0.0270
vn -0.0004 1.0000 0.0000
vn 0.0004 -1.0000 0.0000
vn -0.0006 1.0000 -0.0021
vn 0.0006 -1.0000 0.0021
s off
f 2/1/1 4/2/1 1/3/1
f 5/4/2 7/5/2 6/6/2
f 9/7/3 19/8/3 10/9/3
f 19/10/4 11/11/4 10/12/4
f 11/13/5 15/14/5 12/15/5
f 14/16/6 12/17/6 9/18/6
f 9/18/6 15/19/6 13/20/6
f 18/21/7 12/15/7 16/22/7
f 10/12/8 18/23/8 20/24/8
f 14/25/9 10/9/9 20/26/9
f 5/27/10 19/28/10 13/29/10
f 14/30/11 4/2/11 16/31/11
f 13/32/12 8/33/12 5/34/12
f 18/35/13 4/36/13 3/37/13
f 17/38/14 8/39/14 15/40/14
f 20/41/15 3/42/15 2/43/15
f 6/44/16 17/45/16 19/46/16
f 1/47/8 20/48/8 2/49/8
f 2/1/1 3/50/1 4/2/1
f 5/4/2 8/51/2 7/5/2
f 9/7/17 13/52/17 19/8/17
f 19/10/4 17/53/4 11/11/4
f 11/13/18 17/54/18 15/14/18
f 14/16/13 16/55/13 12/17/13
f 9/18/6 12/17/6 15/19/6
f 18/21/8 11/13/8 12/15/8
f 10/12/4 11/11/4 18/23/4
f 14/25/13 9/7/13 10/9/13
f 5/27/8 6/56/8 19/28/8
f 14/30/11 1/3/11 4/2/11
f 13/32/12 15/57/12 8/33/12
f 18/35/19 16/58/19 4/36/19
f 17/38/13 7/59/13 8/39/13
f 20/41/15 18/60/15 3/42/15
f 6/44/16 7/61/16 17/45/16
f 1/47/20 14/62/20 20/48/20
