# Blender v2.79 (sub 0) OBJ File: 'RightSidedSmoothULD.blend'
# www.blender.org
o NurbsCurve
v 0.833333 0.750000 0.000000
v 0.847211 0.713685 0.000000
v 0.860272 0.676216 0.000000
v 0.872517 0.637662 0.000000
v 0.883946 0.598094 0.000000
v 0.894558 0.557581 0.000000
v 0.904354 0.516193 0.000000
v 0.913333 0.474001 0.000000
v 0.921497 0.431074 0.000000
v 0.928843 0.387482 0.000000
v 0.935374 0.343295 0.000000
v 0.941088 0.298584 0.000000
v 0.945986 0.253418 0.000000
v 0.950068 0.207867 0.000000
v 0.953333 0.162001 0.000000
v 0.955782 0.115891 0.000000
v 0.957415 0.069605 0.000000
v 0.958231 0.023214 0.000000
v 0.958231 -0.023211 0.000000
v 0.957415 -0.069602 0.000000
v 0.955782 -0.115887 0.000000
v 0.953333 -0.161998 0.000000
v 0.950068 -0.207864 0.000000
v 0.945987 -0.253415 0.000000
v 0.941089 -0.298581 0.000000
v 0.935374 -0.343292 0.000000
v 0.928844 -0.387479 0.000000
v 0.921497 -0.431070 0.000000
v 0.913334 -0.473997 0.000000
v 0.904354 -0.516190 0.000000
v 0.894559 -0.557578 0.000000
v 0.883946 -0.598091 0.000000
v 0.872518 -0.637659 0.000000
v 0.860273 -0.676213 0.000000
v 0.847212 -0.713682 0.000000
v 0.833334 -0.749997 0.000000
l 1 2
l 2 3
l 3 4
l 4 5
l 5 6
l 6 7
l 7 8
l 8 9
l 9 10
l 10 11
l 11 12
l 12 13
l 13 14
l 14 15
l 15 16
l 16 17
l 17 18
l 18 19
l 19 20
l 20 21
l 21 22
l 22 23
l 23 24
l 24 25
l 25 26
l 26 27
l 27 28
l 28 29
l 29 30
l 30 31
l 31 32
l 32 33
l 33 34
l 34 35
l 35 36
o Cube
v 1.019633 1.000000 -1.000000
v -0.980366 1.000000 -1.000000
v -0.782365 -0.980148 -0.805302
v 0.824976 -0.980007 -0.805301
v 1.019634 0.996130 0.997992
v -0.947796 0.996879 1.000000
v -0.752046 -0.979847 0.996739
v 0.825358 -0.980015 0.990274
v -0.739415 -0.983935 1.754159
v -0.930822 0.995614 1.953103
v 0.351648 -0.983856 1.730229
v 0.402414 0.995614 1.923861
v 0.466608 -0.983883 1.668782
v 0.575300 0.995614 1.831451
v 0.588498 -0.983909 1.568749
v 0.726837 0.995614 1.707088
v 0.688530 -0.983945 1.446859
v 0.851200 0.995614 1.555551
v 0.762861 -0.983990 1.307796
v 0.943610 0.995614 1.382664
v 0.808681 -0.984041 1.156748
v 1.000515 0.995614 1.195071
v 0.019633 -0.980077 -0.805302
v -0.768871 -0.979847 -0.003275
v 0.825147 -0.979871 0.000031
v -0.268474 -0.983871 1.743830
v 0.397076 -0.983875 1.705947
v 0.527553 -0.983896 1.618765
v 0.638514 -0.983927 1.507804
v 0.725695 -0.983967 1.377328
v 0.785747 -0.984016 1.232350
v 0.816558 -0.982035 1.078121
v -0.744098 -0.982040 1.473305
v 0.019633 -1.000000 -1.000000
v 1.019634 -1.000000 -1.000000
v -0.963542 -1.000000 0.000000
v -0.946717 -1.000000 1.000000
v 1.019846 -1.000159 -0.000010
v 1.020058 -1.000318 0.999980
v -0.264205 -1.004386 1.938482
v 0.402413 -1.004386 1.923861
v 0.488857 -1.004386 1.877656
v 0.575300 -1.004386 1.831451
v 0.651068 -1.004386 1.769269
v 0.726837 -1.004386 1.707088
v 0.789018 -1.004386 1.631320
v 0.851199 -1.004386 1.555551
v 0.897404 -1.004386 1.469108
v 0.943609 -1.004386 1.382664
v 0.972062 -1.004386 1.288868
v 1.000515 -1.004386 1.195071
v 1.010287 -1.002352 1.097526
v -0.938770 -1.002193 1.476552
v -0.930823 -1.004386 1.953103
v -0.980367 -1.000000 -1.000000
v 0.019633 -0.979996 -0.859262
v 0.878926 -0.979945 -0.859262
v -0.822824 -0.979829 -0.002368
v -0.805999 -0.979829 0.997643
v 0.879108 -0.979891 0.000020
v 0.879319 -0.980039 0.992964
v -0.267291 -0.983953 1.797778
v 0.365718 -0.983943 1.783894
v 0.422513 -0.983956 1.753536
v 0.496732 -0.983962 1.713865
v 0.561785 -0.983971 1.660478
v 0.626839 -0.983981 1.607090
v 0.680226 -0.983994 1.542037
v 0.733614 -0.984007 1.476983
v 0.773285 -0.984023 1.402765
v 0.812955 -0.984040 1.328546
v 0.837385 -0.984058 1.248014
v 0.861848 -0.984077 1.167369
v 0.870250 -0.982063 1.083499
v -0.798052 -0.982022 1.474205
v -0.792464 -0.983999 1.809297
v -0.837241 -0.980047 -0.859262
v 0.019655 -0.932663 -0.859112
v 0.878947 -0.932613 -0.859112
v -0.822803 -0.932497 -0.002218
v -0.805977 -0.932497 0.997793
v 0.879130 -0.932559 0.000170
v 0.879340 -0.932707 0.993114
v -0.267270 -0.936621 1.797928
v 0.365739 -0.936611 1.784044
v 0.422535 -0.936624 1.753686
v 0.496753 -0.936630 1.714015
v 0.561807 -0.936639 1.660627
v 0.626860 -0.936649 1.607240
v 0.680248 -0.936662 1.542186
v 0.733635 -0.936675 1.477133
v 0.773306 -0.936691 1.402915
v 0.812977 -0.936707 1.328696
v 0.837406 -0.936726 1.248164
v 0.861869 -0.936745 1.167519
v 0.870271 -0.934731 1.083649
v -0.798030 -0.934690 1.474355
v -0.792443 -0.936667 1.809447
v -0.837220 -0.932715 -0.859113
v 0.019655 -0.932745 -0.805152
v 0.824998 -0.932675 -0.805152
v -0.768849 -0.932515 -0.003125
v -0.752024 -0.932515 0.996889
v 0.825169 -0.932539 0.000181
v 0.825379 -0.932683 0.990424
v -0.268453 -0.936539 1.743980
v 0.351670 -0.936524 1.730379
v 0.397098 -0.936543 1.706097
v 0.466629 -0.936550 1.668931
v 0.527574 -0.936563 1.618915
v 0.588519 -0.936577 1.568899
v 0.638535 -0.936595 1.507954
v 0.688552 -0.936613 1.447009
v 0.725717 -0.936635 1.377478
v 0.762882 -0.936658 1.307946
v 0.785769 -0.936684 1.232500
v 0.808702 -0.936709 1.156898
v 0.816579 -0.934703 1.078271
v -0.744077 -0.934708 1.473455
v -0.739394 -0.936603 1.754309
v -0.782344 -0.932816 -0.805152
v 0.641840 -0.979850 0.358707
v 0.194428 -0.979853 0.357759
v 0.201952 -0.979806 0.943008
v 0.629377 -0.979850 0.951993
v 0.614359 -0.993273 0.385560
v 0.603037 -0.993276 0.924522
v 0.221688 -0.993279 0.384728
v 0.228527 -0.993233 0.916650
vt 0.679843 0.740400
vt 0.556170 0.740350
vt 0.556170 0.988725
vt 0.015319 0.259553
vt 0.258823 0.283779
vt 0.261213 0.259304
vt 0.861650 0.648610
vt 0.943794 0.400202
vt 0.779506 0.400269
vt 0.955499 0.648585
vt 0.967203 0.400219
vt 0.977978 0.648608
vt 0.988752 0.400247
vt 0.556189 0.021731
vt 0.806140 0.032676
vt 0.806165 0.011567
vt 0.556161 0.043820
vt 0.806109 0.055745
vt 0.556128 0.067426
vt 0.806073 0.079888
vt 0.533488 0.458769
vt 0.283709 0.400546
vt 0.283728 0.517661
vt 0.806098 0.104420
vt 0.556578 0.103795
vt 0.556390 0.226276
vt 0.408661 0.377848
vt 0.515968 0.360426
vt 0.408598 0.360426
vt 0.287799 0.129526
vt 0.303282 0.254033
vt 0.305327 0.129871
vt 0.533582 0.253688
vt 0.515911 0.130452
vt 0.515941 0.253737
vt 0.451701 0.032239
vt 0.373038 0.012992
vt 0.372605 0.030515
vt 0.468075 0.040934
vt 0.467138 0.020545
vt 0.458799 0.036008
vt 0.484339 0.054191
vt 0.487413 0.034002
vt 0.476207 0.047562
vt 0.497688 0.070345
vt 0.504658 0.051130
vt 0.491013 0.062268
vt 0.507610 0.088775
vt 0.518210 0.071270
vt 0.502649 0.079560
vt 0.513729 0.108787
vt 0.527549 0.093649
vt 0.510667 0.098774
vt 0.532331 0.117411
vt 0.514778 0.119205
vt 0.306983 0.029085
vt 0.288771 0.070352
vt 0.306298 0.070695
vt 0.301530 0.360426
vt 0.285754 0.253687
vt 0.892235 0.231103
vt 0.886549 0.242051
vt 0.892465 0.242044
vt 0.248525 0.400280
vt 0.254255 0.504934
vt 0.254441 0.400270
vt 0.886780 0.251843
vt 0.892674 0.261567
vt 0.892696 0.251837
vt 0.828848 0.045693
vt 0.834578 0.104271
vt 0.834764 0.045703
vt 0.921108 0.115948
vt 0.915193 0.220419
vt 0.921108 0.220421
vt 0.886737 0.271283
vt 0.892634 0.280555
vt 0.892653 0.271277
vt 0.254256 0.685287
vt 0.248525 0.726228
vt 0.254441 0.726218
vt 0.886699 0.289839
vt 0.892599 0.298322
vt 0.892615 0.289833
vt 0.886759 0.261573
vt 0.857676 0.079541
vt 0.863361 0.090843
vt 0.863591 0.079548
vt 0.882936 0.740351
vt 0.888838 0.748962
vt 0.888852 0.740350
vt 0.886718 0.280561
vt 0.863801 0.058762
vt 0.857907 0.069077
vt 0.863822 0.069084
vt 0.882908 0.757573
vt 0.888814 0.766928
vt 0.888823 0.757573
vt 0.254070 0.627077
vt 0.248340 0.685297
vt 0.886683 0.298328
vt 0.892584 0.306811
vt 0.863761 0.038682
vt 0.857864 0.048448
vt 0.863780 0.048454
vt 0.888806 0.773040
vt 0.882913 0.848969
vt 0.888828 0.848969
vt 0.882922 0.748962
vt 0.863729 0.020046
vt 0.857827 0.028902
vt 0.863743 0.028909
vt 0.118604 0.402010
vt 0.018102 0.410343
vt 0.118717 0.408709
vt 0.225655 0.630856
vt 0.218914 0.506674
vt 0.218912 0.630853
vt 0.013031 0.510428
vt 0.021825 0.633253
vt 0.019772 0.510320
vt 0.082552 0.724162
vt 0.160021 0.731292
vt 0.160055 0.724592
vt 0.068060 0.716767
vt 0.073747 0.727199
vt 0.076825 0.721240
vt 0.052622 0.704596
vt 0.056152 0.715930
vt 0.060341 0.710682
vt 0.039868 0.689668
vt 0.041105 0.701467
vt 0.046245 0.697132
vt 0.030290 0.672555
vt 0.029187 0.684366
vt 0.035079 0.681111
vt 0.024248 0.653896
vt 0.020853 0.665285
vt 0.027272 0.663235
vt 0.016407 0.644923
vt 0.023104 0.644146
vt 0.218914 0.724918
vt 0.225657 0.690040
vt 0.218914 0.690038
vt 0.218914 0.407081
vt 0.225656 0.506677
vt 0.863596 0.213132
vt 0.857907 0.318953
vt 0.863822 0.318960
vt 0.921108 0.011179
vt 0.915193 0.115945
vt 0.829033 0.011177
vt 0.834948 0.011187
vt 0.854478 0.740351
vt 0.860367 0.805094
vt 0.860394 0.740350
vt 0.248339 0.504943
vt 0.826013 0.740353
vt 0.831929 0.838906
vt 0.831929 0.740350
vt 0.860341 0.883131
vt 0.854435 0.890655
vt 0.860351 0.890655
vt 0.857680 0.213126
vt 0.834762 0.227167
vt 0.829033 0.325720
vt 0.834948 0.325731
vt 0.860361 0.900487
vt 0.854462 0.909438
vt 0.860378 0.909438
vt 0.854452 0.805094
vt 0.886780 0.011183
vt 0.892472 0.109816
vt 0.892696 0.011177
vt 0.863714 0.011184
vt 0.857813 0.020039
vt 0.826013 0.838908
vt 0.831929 0.937872
vt 0.854446 0.900487
vt 0.882936 0.906631
vt 0.888852 0.906631
vt 0.857846 0.038675
vt 0.828847 0.227157
vt 0.854478 0.918389
vt 0.860394 0.918389
vt 0.882898 0.766928
vt 0.857885 0.058755
vt 0.886556 0.109822
vt 0.733588 0.430789
vt 0.719717 0.417012
vt 0.559854 0.494254
vt 0.015662 0.758258
vt 0.063762 0.824300
vt 0.062459 0.757379
vt 0.065719 0.754009
vt 0.011248 0.827676
vt 0.014697 0.824300
vt 0.012310 0.755013
vt 0.803516 0.988823
vt 0.803516 0.740449
vt 0.261213 0.011177
vt 0.011248 0.011177
vt 0.017440 0.377917
vt 0.184071 0.374285
vt 0.205679 0.362809
vt 0.224618 0.347365
vt 0.240161 0.328546
vt 0.251711 0.307075
vt 0.779506 0.648644
vt 0.943794 0.648577
vt 0.967203 0.648594
vt 0.988752 0.648622
vt 0.556201 0.011177
vt 0.556176 0.032285
vt 0.556146 0.055354
vt 0.556110 0.079498
vt 0.283709 0.763466
vt 0.533488 0.640229
vt 0.533673 0.763122
vt 0.533673 0.400202
vt 0.533302 0.517335
vt 0.556201 0.348758
vt 0.806165 0.349148
vt 0.556344 0.091646
vt 0.533613 0.377848
vt 0.533552 0.129528
vt 0.456334 0.014808
vt 0.477942 0.026281
vt 0.496884 0.041722
vt 0.512432 0.060537
vt 0.523989 0.082003
vt 0.531110 0.105295
vt 0.289743 0.011177
vt 0.283709 0.377848
vt 0.886319 0.231110
vt 0.828662 0.104261
vt 0.857445 0.090837
vt 0.248154 0.627087
vt 0.886668 0.306818
vt 0.882891 0.773040
vt 0.011248 0.403754
vt 0.015089 0.633696
vt 0.080907 0.730853
vt 0.064391 0.722425
vt 0.047912 0.709434
vt 0.034299 0.693499
vt 0.024074 0.675233
vt 0.017627 0.655323
vt 0.225657 0.731656
vt 0.225657 0.400270
vt 0.915193 0.011177
vt 0.854426 0.883132
vt 0.857798 0.011177
vt 0.826013 0.937875
vt 0.656381 0.717997
vt 0.757010 0.717997
vt 0.756984 0.618006
vt 0.756954 0.495056
vt 0.755855 0.484144
vt 0.754871 0.474376
vt 0.752001 0.464990
vt 0.749137 0.455622
vt 0.744489 0.446989
vt 0.739841 0.438356
vt 0.727335 0.423222
vt 0.712099 0.410802
vt 0.703409 0.406188
vt 0.697731 0.403173
vt 0.620245 0.401484
vt 0.561400 0.400202
vt 0.560825 0.435078
vt 0.557809 0.618417
vt 0.556170 0.717997
vt 0.067153 0.827676
vn 0.0000 0.0000 -1.0000
vn 0.0004 1.0000 0.0027
vn 0.0219 -0.0000 0.9998
vn 0.4714 -0.0000 0.8819
vn 0.6344 -0.0000 0.7730
vn 0.7730 -0.0000 0.6344
vn 0.8819 -0.0000 0.4714
vn 0.9569 -0.0000 0.2903
vn -0.9998 -0.0003 0.0178
vn 1.0000 0.0002 -0.0002
vn 0.0001 -0.9900 0.1407
vn 0.1419 -0.9899 -0.0024
vn -0.1425 -0.9898 -0.0001
vn -0.0031 -0.9896 -0.1436
vn -0.0678 -0.9896 -0.1267
vn -0.0912 -0.9896 -0.1109
vn -0.1109 -0.9897 -0.0908
vn -0.1264 -0.9897 -0.0673
vn -0.1369 -0.9897 -0.0413
vn -0.1397 -0.9895 -0.0361
vn 0.1418 -0.9899 -0.0082
vn 0.1419 -0.9899 -0.0021
vn -0.1425 -0.9898 0.0001
vn -0.0679 -0.9896 -0.1266
vn -0.1109 -0.9897 -0.0909
vn -0.1396 -0.9895 -0.0377
vn 0.1418 -0.9899 -0.0069
vn 0.9950 -0.0008 0.0997
vn 0.9999 -0.0004 -0.0168
vn 0.9569 -0.0014 0.2903
vn -0.9999 0.0004 0.0167
vn 0.0000 -0.0032 1.0000
vn 0.8819 -0.0019 0.4714
vn 0.9999 -0.0004 -0.0167
vn 0.7730 -0.0024 0.6344
vn -0.9950 0.0008 -0.0997
vn 0.6344 -0.0027 0.7730
vn -0.9569 0.0014 -0.2903
vn 0.4714 -0.0030 0.8819
vn -0.8819 0.0019 -0.4714
vn 0.0219 -0.0032 0.9998
vn -0.7730 0.0024 -0.6344
vn 0.0001 -1.0000 -0.0015
vn -0.0003 -1.0000 0.0000
vn -0.0004 -1.0000 -0.0001
vn -0.0000 -1.0000 -0.0015
vn -0.0008 -1.0000 -0.0013
vn -0.0010 -1.0000 -0.0010
vn -0.0011 -1.0000 -0.0006
vn -0.0010 -1.0000 -0.0002
vn -0.0008 -1.0000 0.0001
vn 0.0018 -0.9997 -0.0228
vn -0.0005 -1.0000 -0.0067
vn -0.0003 -1.0000 0.0004
vn -0.0004 -1.0000 0.0002
vn -0.0010 -1.0000 -0.0012
vn 0.0020 -0.9997 -0.0253
vn -0.0004 -1.0000 -0.0046
vn -1.0000 0.0005 0.0002
vn -0.0219 0.0032 -0.9998
vn -0.0000 0.0032 -1.0000
vn -0.4714 0.0030 -0.8819
vn -1.0000 0.0004 0.0002
vn -0.9999 0.0004 0.0168
vn -0.6344 0.0027 -0.7730
vn 1.0000 -0.0005 -0.0002
vn 1.0000 -0.0004 -0.0002
vn -0.0022 -1.0000 -0.0019
vn -0.0001 -1.0000 -0.0000
vn 0.4463 -0.8948 0.0094
vn 0.0010 -0.8948 -0.4464
vn -0.4464 -0.8948 0.0058
vn -0.0095 -0.8948 0.4463
vn 0.0000 1.0000 0.0016
vn 0.0000 1.0000 0.0013
vn 0.0004 1.0000 0.0008
vn 0.0006 1.0000 0.0005
vn 0.0006 1.0000 0.0002
vn 0.0004 1.0000 0.0019
vn 0.0005 1.0000 0.0006
vn 0.0006 1.0000 0.0003
vn -0.9999 -0.0003 0.0163
vn -0.9999 0.0000 0.0168
vn -0.9999 0.0000 0.0167
vn -0.9999 -0.0005 0.0168
vn -0.9999 -0.0005 0.0167
vn 1.0000 0.0000 -0.0002
vn 1.0000 0.0001 -0.0000
vn 0.9950 -0.0000 0.0997
vn 0.9950 0.0003 0.0997
vn 0.9953 0.0002 0.0966
vn 0.0000 -0.9900 0.1411
vn -0.1426 -0.9898 -0.0001
vn -0.0032 -0.9896 -0.1437
vn -0.0677 -0.9896 -0.1267
vn -0.0910 -0.9897 -0.1109
vn -0.1108 -0.9897 -0.0909
vn -0.1262 -0.9897 -0.0674
vn -0.1367 -0.9897 -0.0415
vn -0.1408 -0.9894 -0.0347
vn 0.1388 -0.9903 -0.0069
vn 0.0000 -0.9901 0.1404
vn 0.1404 -0.9901 -0.0024
vn -0.1412 -0.9900 -0.0001
vn -0.0031 -0.9897 -0.1433
vn -0.0678 -0.9896 -0.1268
vn -0.0911 -0.9896 -0.1110
vn -0.1109 -0.9897 -0.0910
vn -0.1264 -0.9897 -0.0676
vn -0.1369 -0.9897 -0.0415
vn -0.1381 -0.9898 -0.0345
vn 0.9569 -0.0013 0.2903
vn 0.0001 -1.0000 -0.0011
vn -0.0000 -1.0000 -0.0016
vn -0.0007 -1.0000 -0.0013
vn -0.0009 -1.0000 -0.0009
vn -0.0010 -1.0000 -0.0006
vn -0.0009 -1.0000 -0.0003
vn -0.0007 -1.0000 0.0000
vn 0.0007 -0.9998 -0.0223
vn -0.0048 -1.0000 -0.0058
vn 0.0001 -1.0000 -0.0019
vn -0.0021 -1.0000 0.0003
vn 0.0012 -1.0000 0.0001
vn -0.0010 -1.0000 -0.0014
vn -0.0010 -1.0000 -0.0011
vn -0.0011 -1.0000 -0.0007
vn -0.0011 -1.0000 -0.0004
vn -0.0010 -1.0000 -0.0001
vn 0.0040 -0.9997 -0.0236
vn 0.0001 -1.0000 0.0002
vn -0.0001 -1.0000 -0.0001
vn -0.1261 -0.9913 -0.0379
vn 0.0001 -1.0000 0.0004
vn 0.0000 -1.0000 0.0009
vn -0.0000 -1.0000 -0.0067
vn -0.0000 -1.0000 0.0000
vn -0.0012 -1.0000 -0.0046
vn -0.0019 -1.0000 -0.0026
vn -0.0024 -1.0000 -0.0013
vn -0.0007 -0.9999 -0.0130
vn -0.0000 -1.0000 0.0003
vn -0.0003 -1.0000 -0.0052
vn -0.0026 -1.0000 -0.0007
vn -0.0002 -0.9997 -0.0230
vn 0.0000 -1.0000 0.0001
vn 0.4462 -0.8949 0.0094
vn 0.0010 -0.8949 -0.4463
vn -0.0095 -0.8948 0.4464
s off
f 70/1/1 91/2/1 38/3/1
f 42/4/2 58/5/2 41/6/2
f 76/7/3 48/8/3 46/9/3
f 78/10/4 50/11/4 48/8/4
f 80/12/5 52/13/5 50/11/5
f 82/14/6 54/15/6 52/16/6
f 84/17/7 56/18/7 54/15/7
f 86/19/8 58/20/8 56/18/8
f 89/21/9 46/22/9 42/23/9
f 41/24/10 75/25/10 74/26/10
f 70/27/11 93/28/11 92/29/11
f 73/30/12 94/31/12 95/32/12
f 74/33/13 97/34/13 96/35/13
f 99/36/14 76/37/14 98/38/14
f 101/39/15 78/40/15 100/41/15
f 103/42/16 80/43/16 102/44/16
f 105/45/17 82/46/17 104/47/17
f 107/48/18 84/49/18 106/50/18
f 109/51/19 86/52/19 108/53/19
f 97/34/20 88/54/20 110/55/20
f 112/56/21 89/57/21 111/58/21
f 113/59/11 70/27/11 92/29/11
f 72/60/22 113/59/22 94/31/22
f 93/28/23 74/33/23 96/35/23
f 76/37/14 112/56/14 98/38/14
f 78/40/24 99/36/24 100/41/24
f 80/43/16 101/39/16 102/44/16
f 82/46/25 103/42/25 104/47/25
f 84/49/18 105/45/18 106/50/18
f 86/52/19 107/48/19 108/53/19
f 88/54/26 109/51/26 110/55/26
f 111/58/27 73/30/27 95/32/27
f 44/61/28 154/62/28 68/63/28
f 135/64/29 94/65/29 113/66/29
f 153/67/30 67/68/30 57/69/30
f 155/70/31 43/71/31 69/72/31
f 92/73/32 135/74/32 113/75/32
f 151/76/33 66/77/33 55/78/33
f 68/63/28 153/67/28 57/69/28
f 111/79/34 134/80/34 112/81/34
f 149/82/35 65/83/35 53/84/35
f 152/85/30 55/78/30 67/68/30
f 132/86/36 97/87/36 110/88/36
f 147/89/37 64/90/37 51/91/37
f 150/92/33 53/84/33 66/77/33
f 108/93/38 131/94/38 109/95/38
f 145/96/39 63/97/39 49/98/39
f 95/99/34 133/100/34 111/79/34
f 148/101/35 51/102/35 65/83/35
f 106/103/40 129/104/40 107/105/40
f 47/106/41 142/107/41 62/108/41
f 131/94/36 110/88/36 109/95/36
f 146/109/37 49/98/37 64/90/37
f 104/110/42 127/111/42 105/112/42
f 114/113/43 137/114/43 136/115/43
f 117/116/44 138/117/44 139/118/44
f 118/119/45 141/120/45 140/121/45
f 143/122/46 120/123/46 142/124/46
f 145/125/47 122/126/47 144/127/47
f 147/128/48 124/129/48 146/130/48
f 149/131/49 126/132/49 148/133/49
f 151/134/50 128/135/50 150/136/50
f 153/137/51 130/138/51 152/139/51
f 141/120/52 132/140/52 154/141/52
f 156/142/53 133/143/53 155/144/53
f 157/145/43 114/113/43 136/115/43
f 116/146/54 157/145/54 138/117/54
f 137/114/55 118/119/55 140/121/55
f 120/123/43 156/142/43 142/124/43
f 122/126/56 143/122/56 144/127/56
f 124/129/48 145/125/48 146/130/48
f 126/132/49 147/128/49 148/133/49
f 128/135/50 149/131/50 150/136/50
f 130/138/51 151/134/51 152/139/51
f 132/140/57 153/137/57 154/141/57
f 155/144/58 117/116/58 139/118/58
f 96/147/59 115/148/59 93/149/59
f 93/150/32 114/151/32 92/73/32
f 156/152/31 69/72/31 45/153/31
f 134/154/60 98/155/60 112/156/60
f 116/157/29 95/99/29 94/65/29
f 157/158/61 59/159/61 39/160/61
f 99/161/62 122/162/62 100/163/62
f 97/87/63 118/164/63 96/147/63
f 60/165/64 157/166/64 39/167/64
f 101/168/65 124/169/65 102/170/65
f 120/171/60 99/161/60 98/155/60
f 137/172/66 61/173/66 40/174/66
f 103/175/42 126/176/42 104/110/42
f 136/177/61 40/178/61 59/159/61
f 100/163/62 123/179/62 101/168/62
f 62/108/41 156/180/41 45/181/41
f 105/112/40 128/182/40 106/103/40
f 43/71/64 138/183/64 60/165/64
f 102/170/65 125/184/65 103/185/65
f 144/186/39 47/106/39 63/97/39
f 107/105/38 130/187/38 108/93/38
f 140/188/67 44/61/67 61/173/67
f 65/189/68 64/190/68 43/191/68
f 165/192/69 162/193/69 163/194/69
f 162/193/70 161/195/70 163/194/70
f 159/196/71 162/193/71 164/197/71
f 160/198/72 164/197/72 165/192/72
f 163/194/73 160/198/73 165/192/73
f 38/3/1 37/199/1 70/1/1
f 71/200/1 70/1/1 37/199/1
f 37/201/74 38/202/74 42/4/74
f 42/4/75 46/203/75 48/204/75
f 48/204/76 50/205/76 42/4/76
f 52/206/77 54/207/77 42/4/77
f 56/208/78 58/5/78 42/4/78
f 41/6/79 37/201/79 42/4/79
f 42/4/80 50/205/80 52/206/80
f 54/207/81 56/208/81 42/4/81
f 46/9/3 90/209/3 76/7/3
f 76/7/3 77/210/3 48/8/3
f 48/8/4 77/210/4 78/10/4
f 78/10/4 79/211/4 50/11/4
f 50/11/5 79/211/5 80/12/5
f 80/12/5 81/212/5 52/13/5
f 52/16/6 81/213/6 82/14/6
f 82/14/6 83/214/6 54/15/6
f 54/15/7 83/214/7 84/17/7
f 84/17/7 85/215/7 56/18/7
f 56/18/8 85/215/8 86/19/8
f 86/19/8 87/216/8 58/20/8
f 42/23/82 38/217/82 72/218/82
f 91/219/83 72/218/83 38/217/83
f 89/21/84 90/220/84 46/22/84
f 42/23/85 72/218/85 73/221/85
f 73/221/86 89/21/86 42/23/86
f 74/26/87 71/222/87 37/223/87
f 37/223/88 41/24/88 74/26/88
f 58/20/89 87/216/89 88/224/89
f 75/25/90 41/24/90 88/224/90
f 58/20/91 88/224/91 41/24/91
f 70/27/92 71/225/92 93/28/92
f 73/30/12 72/60/12 94/31/12
f 74/33/93 75/226/93 97/34/93
f 99/36/94 77/227/94 76/37/94
f 101/39/95 79/228/95 78/40/95
f 103/42/96 81/229/96 80/43/96
f 105/45/97 83/230/97 82/46/97
f 107/48/98 85/231/98 84/49/98
f 109/51/99 87/232/99 86/52/99
f 97/34/100 75/226/100 88/54/100
f 112/56/101 90/233/101 89/57/101
f 113/59/102 91/234/102 70/27/102
f 72/60/103 91/234/103 113/59/103
f 93/28/104 71/225/104 74/33/104
f 76/37/105 90/233/105 112/56/105
f 78/40/106 77/227/106 99/36/106
f 80/43/107 79/228/107 101/39/107
f 82/46/108 81/229/108 103/42/108
f 84/49/109 83/230/109 105/45/109
f 86/52/110 85/231/110 107/48/110
f 88/54/111 87/232/111 109/51/111
f 111/58/27 89/57/27 73/30/27
f 44/61/28 141/235/28 154/62/28
f 135/64/29 116/157/29 94/65/29
f 153/67/112 152/85/112 67/68/112
f 155/70/31 139/236/31 43/71/31
f 92/73/32 114/151/32 135/74/32
f 151/76/33 150/92/33 66/77/33
f 68/63/28 154/62/28 153/67/28
f 111/79/34 133/100/34 134/80/34
f 149/82/35 148/101/35 65/83/35
f 152/85/30 151/76/30 55/78/30
f 132/86/36 119/237/36 97/87/36
f 147/89/37 146/109/37 64/90/37
f 150/92/33 149/82/33 53/84/33
f 108/93/38 130/187/38 131/94/38
f 145/96/39 144/186/39 63/97/39
f 95/99/34 117/238/34 133/100/34
f 148/101/35 147/239/35 51/102/35
f 106/103/40 128/182/40 129/104/40
f 47/106/41 143/240/41 142/107/41
f 131/94/36 132/86/36 110/88/36
f 146/109/37 145/96/37 49/98/37
f 104/110/42 126/176/42 127/111/42
f 114/113/113 115/241/113 137/114/113
f 117/116/44 116/146/44 138/117/44
f 118/119/45 119/242/45 141/120/45
f 143/122/114 121/243/114 120/123/114
f 145/125/115 123/244/115 122/126/115
f 147/128/116 125/245/116 124/129/116
f 149/131/117 127/246/117 126/132/117
f 151/134/118 129/247/118 128/135/118
f 153/137/119 131/248/119 130/138/119
f 141/120/120 119/242/120 132/140/120
f 156/142/121 134/249/121 133/143/121
f 157/145/122 135/250/122 114/113/122
f 116/146/123 135/250/123 157/145/123
f 137/114/124 115/241/124 118/119/124
f 120/123/113 134/249/113 156/142/113
f 122/126/125 121/243/125 143/122/125
f 124/129/126 123/244/126 145/125/126
f 126/132/127 125/245/127 147/128/127
f 128/135/128 127/246/128 149/131/128
f 130/138/129 129/247/129 151/134/129
f 132/140/130 131/248/130 153/137/130
f 155/144/58 133/143/58 117/116/58
f 96/147/59 118/164/59 115/148/59
f 93/150/32 115/251/32 114/151/32
f 156/152/31 155/70/31 69/72/31
f 134/154/60 120/171/60 98/155/60
f 116/157/29 117/238/29 95/99/29
f 157/158/61 136/177/61 59/159/61
f 99/161/62 121/252/62 122/162/62
f 97/87/59 119/237/59 118/164/59
f 60/165/64 138/183/64 157/166/64
f 101/168/65 123/179/65 124/169/65
f 120/171/60 121/252/60 99/161/60
f 137/172/66 140/188/66 61/173/66
f 103/175/42 125/253/42 126/176/42
f 136/177/61 137/254/61 40/178/61
f 100/163/62 122/162/62 123/179/62
f 62/108/41 142/107/41 156/180/41
f 105/112/40 127/111/40 128/182/40
f 43/71/64 139/236/64 138/183/64
f 102/170/65 124/169/65 125/184/65
f 144/186/39 143/240/39 47/106/39
f 107/105/38 129/104/38 130/187/38
f 140/188/66 141/235/66 44/61/66
f 59/255/131 40/256/131 61/257/131
f 61/257/132 44/258/132 43/191/132
f 68/259/133 57/260/133 67/261/133
f 67/261/134 55/262/134 66/263/134
f 66/263/134 53/264/134 65/189/134
f 65/189/134 51/265/134 64/190/134
f 64/190/134 49/266/134 63/267/134
f 63/267/135 47/268/135 62/269/135
f 62/269/136 45/270/136 69/271/136
f 43/191/137 60/272/137 61/257/137
f 62/269/138 69/271/138 43/191/138
f 64/190/139 63/267/139 43/191/139
f 66/263/140 65/189/140 43/191/140
f 68/259/141 67/261/141 43/191/141
f 59/255/142 61/257/142 60/272/142
f 60/272/134 39/273/134 59/255/134
f 63/267/143 62/269/143 43/191/143
f 67/261/144 66/263/144 43/191/144
f 43/191/145 44/258/145 68/259/145
f 165/192/146 164/197/146 162/193/146
f 162/193/147 158/274/147 161/195/147
f 159/196/148 158/274/148 162/193/148
f 160/198/72 159/196/72 164/197/72
f 163/194/149 161/195/149 160/198/149
